<svg width="88" height="36" viewBox="0 0 88 36" fill="none" xmlns="http://www.w3.org/2000/svg">
<path d="M64.6128 14.7629C66.4118 13.881 68.2461 13.2461 70.1156 12.8581C72.0205 12.4348 74.137 12.2231 76.4651 12.2231C78.7227 12.2231 80.5922 12.3995 82.0738 12.7523C83.5553 13.105 84.737 13.6165 85.6189 14.2867C86.5008 14.9569 87.1181 15.7506 87.4708 16.6677C87.8236 17.5848 88 18.6254 88 19.7895C88 20.4597 87.947 21.1828 87.8412 21.9589C87.7707 22.7349 87.6825 23.3875 87.5767 23.9166L85.0898 35.5571H76.5709L75.6185 32.1708H75.301C74.1722 33.4054 72.8494 34.3578 71.3326 35.028C69.8511 35.6629 68.3695 35.9804 66.888 35.9804C66.0414 35.9804 65.2124 35.8569 64.4011 35.61C63.5898 35.3631 62.8667 34.9927 62.2317 34.4989C61.5968 33.9698 61.0853 33.3172 60.6973 32.5412C60.3092 31.7298 60.1152 30.7598 60.1152 29.631C60.1152 27.7968 60.6091 26.3505 61.5968 25.2923C62.6197 24.1988 63.9425 23.3875 65.5652 22.8584C67.2231 22.294 69.075 21.9412 71.121 21.8001C73.2022 21.659 75.2834 21.5885 77.3646 21.5885C77.4352 21.2357 77.5233 20.7419 77.6292 20.107C77.735 19.4367 77.7879 18.8547 77.7879 18.3609C77.7879 17.7259 77.6115 17.1439 77.2588 16.6148C76.9413 16.0504 76.2535 15.7682 75.1952 15.7682C73.9606 15.7682 73.0434 16.1386 72.4438 16.8794C71.8794 17.5848 71.509 18.4491 71.3326 19.472H63.6074L64.6128 14.7629ZM76.7826 24.0753H75.8302C74.8072 24.0753 73.9253 24.2164 73.1845 24.4986C72.4791 24.7455 71.897 25.0806 71.4384 25.5039C71.0151 25.9272 70.6977 26.4034 70.486 26.9325C70.2744 27.4616 70.1686 27.9908 70.1686 28.5199C70.1686 29.3665 70.3802 30.0014 70.8035 30.4247C71.2621 30.848 71.7912 31.0596 72.3909 31.0596C73.1316 31.0596 73.8548 30.7951 74.5603 30.266C75.301 29.7368 75.7596 29.0314 75.936 28.1495L76.7826 24.0753Z" fill="#333467"/>
<path d="M57.8798 24.7692H47.0857L52.2858 0H63.1328L57.8798 24.7692Z" fill="#FF5757"/>
<path d="M40.065 35.5565H29.2709L34.1621 12.3901H45.0091L40.065 35.5565Z" fill="#333467"/>
<path d="M16.0324 12.2231C20.2301 12.2231 23.2814 12.9639 25.1862 14.4454C27.1969 15.9975 28.2022 18.5725 28.2022 22.1705C28.2022 24.3928 27.8318 26.4034 27.091 28.2024C26.3503 29.9661 25.3097 31.43 23.9692 32.5941C21.2883 34.8516 17.4081 35.9804 12.3285 35.9804C7.98974 35.9804 4.88556 35.1514 3.016 33.4936C1.00533 31.7651 0 29.1725 0 25.7156C0 23.4227 0.458572 21.3416 1.37572 19.472C2.32814 17.6025 3.68622 16.0504 5.44996 14.8158C8.02502 13.0874 11.5525 12.2231 16.0324 12.2231ZM12.4344 32.3824C13.3162 32.3824 14.0746 31.8886 14.7096 30.9009C15.3798 29.9132 15.9089 28.7139 16.297 27.3029C16.685 25.8567 16.9672 24.3751 17.1436 22.8584C17.3552 21.3063 17.461 19.9659 17.461 18.8371C17.461 17.8494 17.3552 17.1086 17.1436 16.6148C16.9672 16.0857 16.5615 15.8211 15.9266 15.8211C14.9741 15.8211 14.1452 16.3326 13.4397 17.3556C12.7695 18.3785 12.2227 19.5955 11.7994 21.0064C11.3761 22.4174 11.0586 23.8637 10.847 25.3452C10.6706 26.8267 10.5824 28.026 10.5824 28.9432C10.5824 31.236 11.1997 32.3824 12.4344 32.3824Z" fill="#333467"/>
</svg>
