<svg width="40" height="17" viewBox="0 0 40 17" fill="none" xmlns="http://www.w3.org/2000/svg">
<path d="M29.3071 6.69607C30.1231 6.29607 30.9551 6.00807 31.8031 5.83207C32.6671 5.64007 33.6271 5.54407 34.6831 5.54407C35.7071 5.54407 36.5551 5.62407 37.2271 5.78407C37.8991 5.94407 38.4351 6.17607 38.8351 6.48007C39.2351 6.78407 39.5151 7.14407 39.6751 7.56007C39.8351 7.97607 39.9151 8.44807 39.9151 8.97607C39.9151 9.28007 39.8911 9.60807 39.8431 9.96007C39.8111 10.3121 39.7711 10.6081 39.7231 10.8481L38.5951 16.1281H34.7311L34.2991 14.5921H34.1551C33.6431 15.1521 33.0431 15.5841 32.3551 15.8881C31.6831 16.1761 31.0111 16.3201 30.3391 16.3201C29.9551 16.3201 29.5791 16.2641 29.2111 16.1521C28.8431 16.0401 28.5151 15.8721 28.2271 15.6481C27.9391 15.4081 27.7071 15.1121 27.5311 14.7601C27.3551 14.3921 27.2671 13.9521 27.2671 13.4401C27.2671 12.6081 27.4911 11.9521 27.9391 11.4721C28.4031 10.9761 29.0031 10.6081 29.7391 10.3681C30.4911 10.1121 31.3311 9.95207 32.2591 9.88807C33.2031 9.82407 34.1471 9.79207 35.0911 9.79207C35.1231 9.63207 35.1631 9.40807 35.2111 9.12007C35.2591 8.81607 35.2831 8.55207 35.2831 8.32807C35.2831 8.04007 35.2031 7.77607 35.0431 7.53607C34.8991 7.28007 34.5871 7.15207 34.1071 7.15207C33.5471 7.15207 33.1311 7.32007 32.8591 7.65607C32.6031 7.97607 32.4351 8.36807 32.3551 8.83207H28.8511L29.3071 6.69607ZM34.8271 10.9201H34.3951C33.9311 10.9201 33.5311 10.9841 33.1951 11.1121C32.8751 11.2241 32.6111 11.3761 32.4031 11.5681C32.2111 11.7601 32.0671 11.9761 31.9711 12.2161C31.8751 12.4561 31.8271 12.6961 31.8271 12.9361C31.8271 13.3201 31.9231 13.6081 32.1151 13.8001C32.3231 13.9921 32.5631 14.0881 32.8351 14.0881C33.1711 14.0881 33.4991 13.9681 33.8191 13.7281C34.1551 13.4881 34.3631 13.1681 34.4431 12.7681L34.8271 10.9201Z" fill="#6366F1"/>
<path d="M25.2039 16.128H20.3079L23.7159 0H28.6359L25.2039 16.128Z" fill="#6366F1"/>
<path d="M18.1726 16.128H13.2766L16.6846 0H21.6046L18.1726 16.128Z" fill="#6366F1"/>
<path d="M7.272 5.54407C9.176 5.54407 10.56 5.88007 11.424 6.55207C12.336 7.25607 12.792 8.42407 12.792 10.0561C12.792 11.0641 12.624 11.9761 12.288 12.7921C11.952 13.5921 11.48 14.2561 10.872 14.7841C9.656 15.8081 7.896 16.3201 5.592 16.3201C3.624 16.3201 2.216 15.9441 1.368 15.1921C0.456 14.4081 0 13.2321 0 11.6641C0 10.6241 0.208 9.68007 0.624 8.83207C1.056 7.98407 1.672 7.28007 2.472 6.72007C3.64 5.93607 5.24 5.54407 7.272 5.54407ZM5.64 14.6881C6.04 14.6881 6.384 14.4641 6.672 14.0161C6.976 13.5681 7.216 13.0241 7.392 12.3841C7.568 11.7281 7.696 11.0561 7.776 10.3681C7.872 9.66407 7.92 9.05607 7.92 8.54407C7.92 8.09607 7.872 7.76007 7.776 7.53607C7.696 7.29607 7.512 7.17607 7.224 7.17607C6.792 7.17607 6.416 7.40807 6.096 7.87207C5.792 8.33607 5.544 8.88807 5.352 9.52807C5.16 10.1681 5.016 10.8241 4.92 11.4961C4.84 12.1681 4.8 12.7121 4.8 13.1281C4.8 14.1681 5.08 14.6881 5.64 14.6881Z" fill="#6366F1"/>
</svg>
