<svg width="24" height="24" viewBox="0 0 24 24" fill="none" xmlns="http://www.w3.org/2000/svg">
<path d="M20.6316 16.5881C20.1009 15.675 19.3125 13.0997 19.3125 9.75C19.3125 7.8106 18.5421 5.95064 17.1707 4.57928C15.7994 3.20792 13.9394 2.4375 12 2.4375C10.0606 2.4375 8.20063 3.20792 6.82927 4.57928C5.45792 5.95064 4.68749 7.8106 4.68749 9.75C4.68749 13.1006 3.89812 15.675 3.36749 16.5881C3.25107 16.7875 3.18929 17.014 3.18839 17.2449C3.1875 17.4758 3.24751 17.7028 3.36238 17.903C3.47725 18.1033 3.64291 18.2697 3.84265 18.3855C4.04238 18.5013 4.26913 18.5623 4.49999 18.5625H8.48249C8.61912 19.3964 9.04769 20.1545 9.69167 20.7016C10.3357 21.2486 11.1531 21.549 11.9981 21.549C12.8431 21.549 13.6606 21.2486 14.3046 20.7016C14.9486 20.1545 15.3771 19.3964 15.5137 18.5625H19.5C19.7307 18.562 19.9572 18.5007 20.1567 18.3848C20.3562 18.2689 20.5215 18.1024 20.6362 17.9022C20.7508 17.702 20.8107 17.4751 20.8097 17.2444C20.8087 17.0137 20.747 16.7874 20.6306 16.5881H20.6316ZM12 20.4375C11.4515 20.4373 10.919 20.2521 10.4888 19.9119C10.0585 19.5716 9.75564 19.0962 9.62906 18.5625H14.3709C14.2443 19.0962 13.9414 19.5716 13.5112 19.9119C13.081 20.2521 12.5485 20.4373 12 20.4375ZM19.6603 17.3438C19.6449 17.3725 19.6218 17.3964 19.5937 17.4129C19.5656 17.4295 19.5335 17.438 19.5009 17.4375H4.49999C4.46739 17.438 4.43529 17.4295 4.40719 17.4129C4.37909 17.3964 4.35606 17.3725 4.34062 17.3438C4.32416 17.3152 4.3155 17.2829 4.3155 17.25C4.3155 17.2171 4.32416 17.1848 4.34062 17.1562C5.05031 15.9375 5.81249 13.0959 5.81249 9.75C5.81249 8.10897 6.46439 6.53516 7.62477 5.37478C8.78515 4.2144 10.359 3.5625 12 3.5625C13.641 3.5625 15.2148 4.2144 16.3752 5.37478C17.5356 6.53516 18.1875 8.10897 18.1875 9.75C18.1875 13.095 18.9506 15.9328 19.6603 17.1562C19.6768 17.1848 19.6854 17.2171 19.6854 17.25C19.6854 17.2829 19.6768 17.3152 19.6603 17.3438Z" fill="black"/>
</svg>
