<svg width="24" height="24" viewBox="0 0 24 24" fill="none" xmlns="http://www.w3.org/2000/svg">
<path d="M21.4509 10.7709L15.4219 8.57812L13.229 2.54906C13.1373 2.29678 12.9701 2.07884 12.7503 1.92483C12.5304 1.77083 12.2684 1.68822 12 1.68822C11.7315 1.68822 11.4696 1.77083 11.2497 1.92483C11.0298 2.07884 10.8627 2.29678 10.7709 2.54906L8.57811 8.57812L2.54905 10.7709C2.29676 10.8627 2.07882 11.0298 1.92482 11.2497C1.77081 11.4696 1.6882 11.7316 1.6882 12C1.6882 12.2684 1.77081 12.5304 1.92482 12.7503C2.07882 12.9702 2.29676 13.1373 2.54905 13.2291L8.57811 15.4219L10.7709 21.4509C10.8627 21.7032 11.0298 21.9212 11.2497 22.0752C11.4696 22.2292 11.7315 22.3118 12 22.3118C12.2684 22.3118 12.5304 22.2292 12.7503 22.0752C12.9701 21.9212 13.1373 21.7032 13.229 21.4509L15.4219 15.4219L21.4509 13.2291C21.7032 13.1373 21.9211 12.9702 22.0751 12.7503C22.2292 12.5304 22.3118 12.2684 22.3118 12C22.3118 11.7316 22.2292 11.4696 22.0751 11.2497C21.9211 11.0298 21.7032 10.8627 21.4509 10.7709ZM21.0665 12.1772L14.7909 14.4591C14.7136 14.4871 14.6434 14.5318 14.5853 14.59C14.5271 14.6481 14.4824 14.7183 14.4544 14.7956L12.1725 21.0712C12.1581 21.1051 12.134 21.1339 12.1034 21.1542C12.0727 21.1745 12.0367 21.1853 12 21.1853C11.9632 21.1853 11.9273 21.1745 11.8966 21.1542C11.8659 21.1339 11.8419 21.1051 11.8275 21.0712L9.54561 14.7956C9.51752 14.7183 9.47283 14.6481 9.41468 14.59C9.35653 14.5318 9.28634 14.4871 9.20905 14.4591L2.93342 12.1725C2.8996 12.1581 2.87076 12.1341 2.85049 12.1034C2.83022 12.0727 2.81941 12.0368 2.81941 12C2.81941 11.9632 2.83022 11.9273 2.85049 11.8966C2.87076 11.8659 2.8996 11.8419 2.93342 11.8275L9.20905 9.54563C9.28634 9.51754 9.35653 9.47285 9.41468 9.4147C9.47283 9.35655 9.51752 9.28635 9.54561 9.20906L11.8275 2.93344C11.8419 2.89962 11.8659 2.87077 11.8966 2.8505C11.9273 2.83023 11.9632 2.81942 12 2.81942C12.0367 2.81942 12.0727 2.83023 12.1034 2.8505C12.134 2.87077 12.1581 2.89962 12.1725 2.93344L14.4544 9.20906C14.4824 9.28635 14.5271 9.35655 14.5853 9.4147C14.6434 9.47285 14.7136 9.51754 14.7909 9.54563L21.0665 11.8275C21.1004 11.8419 21.1292 11.8659 21.1495 11.8966C21.1698 11.9273 21.1806 11.9632 21.1806 12C21.1806 12.0368 21.1698 12.0727 21.1495 12.1034C21.1292 12.1341 21.1004 12.1581 21.0665 12.1725V12.1772Z" fill="black"/>
</svg>
