<svg width="24" height="24" viewBox="0 0 24 24" fill="none" xmlns="http://www.w3.org/2000/svg">
<path d="M22.245 9.17535C22.1647 8.92123 22.0098 8.69713 21.8005 8.53212C21.5912 8.36712 21.3371 8.26884 21.0712 8.25004L15.4228 7.79348L13.2459 2.52473C13.1444 2.27777 12.9717 2.06656 12.7499 1.91793C12.528 1.7693 12.267 1.68994 12 1.68994C11.733 1.68994 11.472 1.7693 11.2501 1.91793C11.0283 2.06656 10.8556 2.27777 10.7541 2.52473L8.57719 7.7916L2.92875 8.25004C2.66266 8.26898 2.40843 8.36754 2.1991 8.53289C1.98977 8.69825 1.83503 8.92276 1.755 9.17723C1.67157 9.43102 1.66516 9.70384 1.73657 9.96127C1.80798 10.2187 1.95401 10.4492 2.15625 10.6238L6.46875 14.3372L5.15625 19.8919C5.09466 20.1519 5.11158 20.4242 5.20487 20.6746C5.29816 20.9249 5.46362 21.1419 5.68031 21.2982C5.89432 21.4567 6.15124 21.5469 6.41739 21.557C6.68355 21.567 6.94653 21.4964 7.17188 21.3544L12 18.3863L16.8356 21.3591C17.061 21.5011 17.3239 21.5717 17.5901 21.5616C17.8563 21.5516 18.1132 21.4614 18.3272 21.3029C18.5439 21.1466 18.7093 20.9296 18.8026 20.6793C18.8959 20.4289 18.9128 20.1566 18.8512 19.8966L17.5387 14.3419L21.8438 10.6238C22.0464 10.4491 22.1926 10.2182 22.264 9.96042C22.3355 9.70261 22.3288 9.42941 22.245 9.17535ZM21.1069 9.77254L16.5422 13.71C16.4643 13.7772 16.4063 13.8645 16.3746 13.9624C16.3429 14.0602 16.3386 14.1649 16.3622 14.265L17.7572 20.1516C17.7694 20.196 17.7674 20.2432 17.7514 20.2864C17.7354 20.3296 17.7063 20.3667 17.6681 20.3925C17.6335 20.4193 17.5914 20.4346 17.5478 20.4362C17.5041 20.4379 17.4609 20.4259 17.4244 20.4019L12.2944 17.25C12.2058 17.1957 12.1039 17.1669 12 17.1669C11.8961 17.1669 11.7942 17.1957 11.7056 17.25L6.57562 20.401C6.53908 20.425 6.49595 20.437 6.45225 20.4353C6.40855 20.4336 6.36647 20.4184 6.33187 20.3916C6.29285 20.3664 6.26278 20.3296 6.24594 20.2863C6.22911 20.2431 6.22637 20.1956 6.23812 20.1507L7.63312 14.2641C7.65674 14.164 7.65245 14.0593 7.62071 13.9614C7.58897 13.8636 7.53101 13.7763 7.45312 13.7091L2.88844 9.7716C2.85262 9.74244 2.82679 9.70285 2.81452 9.65832C2.80226 9.61379 2.80417 9.56655 2.82 9.52317C2.83223 9.48039 2.8575 9.4425 2.89228 9.41478C2.92707 9.38705 2.96964 9.37086 3.01406 9.36848L9.00656 8.88473C9.10982 8.87634 9.20876 8.8396 9.29246 8.77856C9.37617 8.71752 9.44139 8.63455 9.48094 8.53879L11.79 2.95129C11.8061 2.90993 11.8343 2.87439 11.8709 2.84934C11.9076 2.82429 11.9509 2.81088 11.9953 2.81088C12.0397 2.81088 12.083 2.82429 12.1197 2.84934C12.1563 2.87439 12.1845 2.90993 12.2006 2.95129L14.5097 8.53879C14.5492 8.63455 14.6145 8.71752 14.6982 8.77856C14.7819 8.8396 14.8808 8.87634 14.9841 8.88473L20.9766 9.36848C21.021 9.37086 21.0636 9.38705 21.0983 9.41478C21.1331 9.4425 21.1584 9.48039 21.1706 9.52317C21.1872 9.56621 21.19 9.61334 21.1785 9.65803C21.1671 9.70271 21.1421 9.74273 21.1069 9.77254Z" fill="black"/>
</svg>
