<svg width="24" height="24" viewBox="0 0 24 24" fill="none" xmlns="http://www.w3.org/2000/svg">
<path d="M20.2624 9.72522C20.1976 9.52033 20.0728 9.33964 19.904 9.2066C19.7353 9.07357 19.5304 8.99433 19.3161 8.97917L14.7619 8.61105L13.0067 4.36301C12.9248 4.16389 12.7856 3.9936 12.6068 3.87376C12.4279 3.75392 12.2175 3.68994 12.0022 3.68994C11.7869 3.68994 11.5764 3.75392 11.3976 3.87376C11.2187 3.9936 11.0795 4.16389 10.9976 4.36301L9.24243 8.60954L4.68826 8.97917C4.47372 8.99444 4.26873 9.0739 4.09996 9.20722C3.93118 9.34055 3.80642 9.52156 3.74189 9.72673C3.67463 9.93136 3.66946 10.1513 3.72703 10.3589C3.78461 10.5664 3.90235 10.7523 4.06541 10.8931L7.54246 13.8871L6.48423 18.3657C6.43457 18.5753 6.44821 18.7949 6.52343 18.9967C6.59865 19.1986 6.73205 19.3735 6.90676 19.4995C7.07932 19.6273 7.28646 19.7001 7.50105 19.7082C7.71565 19.7163 7.92768 19.6593 8.10937 19.5449L12.0022 17.1517L15.901 19.5486C16.0827 19.6631 16.2947 19.72 16.5093 19.7119C16.7239 19.7039 16.931 19.6311 17.1036 19.5033C17.2783 19.3773 17.4117 19.2023 17.4869 19.0005C17.5621 18.7987 17.5758 18.5791 17.5261 18.3695L16.4679 13.8909L19.9389 10.8931C20.1023 10.7522 20.2202 10.5661 20.2778 10.3582C20.3353 10.1503 20.33 9.93006 20.2624 9.72522Z" fill="#CBD5E1"/>
</svg>
