<svg width="24" height="24" viewBox="0 0 24 24" fill="none" xmlns="http://www.w3.org/2000/svg">
<path d="M21.4509 10.7709L15.4219 8.57812L13.2291 2.54906C13.1373 2.29678 12.9702 2.07884 12.7503 1.92483C12.5304 1.77083 12.2684 1.68822 12 1.68822C11.7316 1.68822 11.4696 1.77083 11.2497 1.92483C11.0298 2.07884 10.8627 2.29678 10.7709 2.54906L8.57812 8.57812L2.54906 10.7709C2.29678 10.8627 2.07884 11.0298 1.92483 11.2497C1.77083 11.4696 1.68822 11.7316 1.68822 12C1.68822 12.2684 1.77083 12.5304 1.92483 12.7503C2.07884 12.9702 2.29678 13.1373 2.54906 13.2291L8.57812 15.4219L10.7709 21.4509C10.8627 21.7032 11.0298 21.9212 11.2497 22.0752C11.4696 22.2292 11.7316 22.3118 12 22.3118C12.2684 22.3118 12.5304 22.2292 12.7503 22.0752C12.9702 21.9212 13.1373 21.7032 13.2291 21.4509L15.4219 15.4219L21.4509 13.2291C21.7032 13.1373 21.9212 12.9702 22.0752 12.7503C22.2292 12.5304 22.3118 12.2684 22.3118 12C22.3118 11.7316 22.2292 11.4696 22.0752 11.2497C21.9212 11.0298 21.7032 10.8627 21.4509 10.7709Z" fill="url(#paint0_linear_290_8079)"/>
<defs>
<linearGradient id="paint0_linear_290_8079" x1="12" y1="1.68822" x2="12" y2="22.3118" gradientUnits="userSpaceOnUse">
<stop stop-color="#6366F1"/>
<stop offset="1" stop-color="#06B6D4"/>
</linearGradient>
</defs>
</svg>
